<?xml version="1.0" encoding="utf-8"?>
<!-- Generator: Adobe Illustrator 26.0.2, SVG Export Plug-In . SVG Version: 6.00 Build 0)  -->
<svg version="1.1" id="Layer_1" xmlns="http://www.w3.org/2000/svg" xmlns:xlink="http://www.w3.org/1999/xlink" x="0px" y="0px"
	 viewBox="0 0 194.4 173.6" style="enable-background:new 0 0 194.4 173.6;" xml:space="preserve">
<style type="text/css">
	.st0{fill-rule:evenodd;clip-rule:evenodd;fill:#FA780E;}
</style>
<path class="st0" d="M80,9.9c7.6-13.2,26.7-13.2,34.4,0l77.3,133.9c7.6,13.2-1.9,29.8-17.2,29.8H19.9c-15.3,0-24.8-16.5-17.2-29.8
	L80,9.9z M83.4,54.5c-0.6-8,5.8-14.8,13.8-14.8c8,0,14.4,6.8,13.8,14.8l-3.2,44.7c-0.4,5.6-5,9.9-10.6,9.9c-5.6,0-10.2-4.3-10.6-9.9
	L83.4,54.5z M97.2,148.8c8.2,0,14.9-6.7,14.9-14.9s-6.7-14.9-14.9-14.9s-14.9,6.7-14.9,14.9S89,148.8,97.2,148.8z"/>
</svg>
