<?xml version="1.0" encoding="UTF-8"?>
<svg id="Layer_1" data-name="Layer 1" xmlns="http://www.w3.org/2000/svg" viewBox="0 0 100.02 104.03">
  <defs>
    <style>
      .cls-1 {
        fill: #f36d21;
      }

      .cls-2 {
        fill: #010101;
      }
    </style>
  </defs>
  <g>
    <polygon class="cls-1" points="100.02 41.42 93.99 43.95 93.44 50.47 89.16 45.52 82.79 47.02 86.18 41.42 82.79 35.82 89.16 37.32 93.44 32.36 93.99 38.88 100.02 41.42"/>
    <polygon class="cls-1" points="23.77 50.47 28.04 45.52 34.41 47.02 31.02 41.42 34.41 35.82 28.04 37.32 23.77 32.36 23.22 38.88 17.19 41.42 23.22 43.96 23.77 50.47"/>
    <polygon class="cls-1" points="78.11 21.92 79.67 28.27 83.11 22.71 89.64 23.19 85.42 18.19 87.89 12.13 81.83 14.6 76.83 10.38 77.31 16.91 71.75 20.35 78.11 21.92"/>
    <path class="cls-1" d="m44.03,60.46h29.14c.56,0,.99-.46.95-1.02-.53-8.09-7.31-14.54-15.52-14.54s-14.99,6.45-15.52,14.54c-.04.55.4,1.02.96,1.02Z"/>
    <circle class="cls-1" cx="58.6" cy="35.17" r="8.41"/>
    <polygon class="cls-1" points="53.01 17.23 58.6 13.84 64.2 17.23 62.71 10.86 67.66 6.58 61.14 6.03 58.6 0 56.07 6.03 49.55 6.58 54.5 10.86 53.01 17.23"/>
    <polygon class="cls-1" points="34.09 22.71 37.54 28.27 39.1 21.92 45.46 20.35 39.9 16.91 40.37 10.38 35.38 14.6 29.32 12.13 31.79 18.19 27.57 23.19 34.09 22.71"/>
  </g>
  <g>
    <path class="cls-2" d="m60.34,84.47c-.08,0-.16,0-.24-.03-.54-.13-.87-.67-.74-1.21.32-1.31.19-2.42-.37-3.3-.89-1.4-2.65-1.93-3.05-2.04h-15.5c-1.9,0-4.71-2.06-8.36-6.11-.64-.71-1.56-1.12-2.51-1.12h-13.46c-.55,0-1-.45-1-1s.45-1,1-1h13.46c1.52,0,2.98.65,4,1.78,3.62,4.02,5.93,5.45,6.88,5.45h15.62c.07,0,.14,0,.2.02.12.02,2.95.63,4.42,2.95.86,1.36,1.07,2.99.62,4.84-.11.46-.52.76-.97.76Z"/>
    <path class="cls-2" d="m56.07,104.03h-1.29c-1.43,0-2.85-.22-4.21-.65l-34.75-11.06c-.53-.17-.82-.73-.65-1.26.17-.53.73-.82,1.26-.65l34.75,11.06c1.17.37,2.38.56,3.6.56h1.29c1.73,0,3.4-.36,4.95-1.08,9.29-4.27,20.62-10.97,26.2-14.99.91-.66,1.5-1.63,1.66-2.75.16-1.12-.15-2.22-.85-3.11-1.02-1.29-2.7-1.83-4.28-1.4l-21.17,5.72c-.08.02-.17.03-.26.03h-23.18c-.55,0-1-.45-1-1s.45-1,1-1h23.04l21.04-5.69c2.35-.64,4.85.17,6.37,2.09,1.05,1.32,1.49,2.96,1.26,4.62-.23,1.66-1.11,3.11-2.47,4.09-5.58,4.02-16.78,10.71-26.54,15.18-1.82.83-3.77,1.26-5.79,1.26Z"/>
    <g>
      <rect class="cls-1" x="1" y="60.46" width="13.81" height="34.36"/>
      <path class="cls-2" d="m14.81,95.81H1c-.55,0-1-.45-1-1v-34.36c0-.55.45-1,1-1h13.81c.55,0,1,.45,1,1v34.36c0,.55-.45,1-1,1Zm-12.81-2h11.81v-32.36H2v32.36Z"/>
    </g>
  </g>
</svg>