<?xml version="1.0" encoding="UTF-8"?>
<svg id="Layer_1" data-name="Layer 1" xmlns="http://www.w3.org/2000/svg" viewBox="0 0 64.68 92.51">
  <defs>
    <style>
      .cls-1 {
        fill: #f46c06;
      }
    </style>
  </defs>
  <path class="cls-1" d="m35.66,15.71L15.57,3.63,7.18,1.41,2.62,4l-.98,4.19-.5,7.52.5,18.79,17.36,30.06,9.39-.64,4.25,1.23,3.64,3.12,3.12,5.76.58,6.11v1.9l15.04-8.26,7.77-6.16v-4.2L35.66,15.71Zm-17.75,2.96l-3.52,2.59-3.01-1.5-2.59-2.8,2.59-3.34,1.93-1.24,4.96,1.88-.36,4.41Z"/>
  <path d="m63.81,62.55l-26.73-46.3c-.82-1.43-1.87-2.47-3.3-3.3L13.51,1.24C10.65-.41,7.37-.41,4.51,1.24,1.64,2.89,0,5.74,0,9.04v23.41c0,1.65.39,3.08,1.21,4.5l16.02,27.75c-3.95,2.77-6.54,7.35-6.54,12.53,0,8.43,6.86,15.29,15.29,15.29,6.04,0,11.28-3.52,13.76-8.62l21.72-12.54c1.49-.86,2.55-2.25,3-3.91.45-1.66.22-3.4-.64-4.89Zm-37.84,27.35c-6.98,0-12.67-5.68-12.67-12.67s5.68-12.67,12.67-12.67,12.67,5.68,12.67,12.67c0,6.98-5.68,12.67-12.67,12.67Zm35.95-23.14c-.26.99-.9,1.81-1.78,2.32l-19.16,11.07c.18-.94.28-1.92.28-2.92,0-3.32-1.06-6.38-2.86-8.89l13.85-7.99c.63-.36.84-1.16.48-1.79s-1.16-.84-1.79-.48l-14.27,8.24c-2.76-2.7-6.53-4.37-10.69-4.37-2.31,0-4.51.52-6.48,1.45L3.48,35.64c-.59-1.03-.86-2.01-.86-3.19V9.04c0-2.34,1.16-4.36,3.19-5.53s4.36-1.17,6.39,0l20.27,11.7c1.03.59,1.75,1.31,2.34,2.34l26.73,46.3c.51.88.64,1.91.38,2.9ZM31.99,25.25l-20.43,11.79c-.21.12-.43.18-.65.18-.45,0-.89-.24-1.14-.66-.36-.63-.15-1.43.48-1.79l20.43-11.79c.63-.36,1.43-.15,1.79.48.36.63.15,1.43-.48,1.79Zm6.75,11.69l-20.43,11.8c-.21.12-.43.18-.65.18-.45,0-.89-.24-1.14-.66-.36-.63-.15-1.43.48-1.79l20.43-11.79c.63-.36,1.43-.15,1.79.48.36.63.15,1.43-.48,1.79Zm7.23,9.91c.36.63.15,1.43-.48,1.79l-20.43,11.79c-.21.12-.43.18-.65.18-.45,0-.89-.24-1.14-.66-.36-.63-.15-1.43.48-1.79l20.43-11.79c.63-.36,1.43-.15,1.79.48Zm-20,18.79c-6.39,0-11.58,5.2-11.58,11.58s5.2,11.58,11.58,11.58,11.58-5.2,11.58-11.58c0-6.39-5.2-11.58-11.58-11.58Zm0,20.54c-4.94,0-8.96-4.02-8.96-8.96s4.02-8.96,8.96-8.96,8.96,4.02,8.96,8.96-4.02,8.96-8.96,8.96Zm-1.94-11.51c.04.98.45,1.22,2.61,1.5,1.33.17,2.84.36,3.69,1.53.51.7.67,1.61.46,2.7-.35,1.84-1.68,3.17-3.51,3.58v.63c0,.72-.59,1.31-1.31,1.31s-1.31-.59-1.31-1.31v-.67c-1.76-.46-3.18-1.78-3.67-3.57-.19-.7.22-1.42.91-1.61.7-.19,1.42.21,1.61.91.37,1.32,1.61,1.87,2.68,1.83.41-.02,1.77-.18,2.03-1.57.08-.42.03-.62,0-.67-.18-.25-1.26-.39-1.9-.47-1.79-.23-4.78-.61-4.9-4-.08-2.09,1.21-3.76,3.25-4.27v-.65c0-.72.59-1.31,1.31-1.31s1.31.59,1.31,1.31v.65c1.59.39,3.06,1.5,3.66,3.41.22.69-.17,1.43-.86,1.64-.69.22-1.43-.17-1.64-.86-.43-1.37-1.81-1.89-2.95-1.69-.57.1-1.51.44-1.46,1.68ZM13.59,22.38c.92,0,1.85-.23,2.7-.73,1.25-.72,2.15-1.89,2.52-3.29.37-1.4.18-2.86-.54-4.11s-1.89-2.15-3.29-2.52-2.86-.18-4.11.54c-1.25.72-2.15,1.89-2.52,3.29-.38,1.4-.18,2.86.54,4.11,1,1.74,2.83,2.71,4.7,2.71Zm-2.71-6.14c.19-.72.66-1.32,1.3-1.7.43-.25.91-.38,1.39-.38.24,0,.49.03.73.1.72.19,1.32.66,1.7,1.3.37.65.47,1.4.28,2.12-.19.72-.66,1.32-1.3,1.7-1.33.77-3.05.31-3.82-1.02-.37-.65-.47-1.4-.28-2.12Z"/>
</svg>