<?xml version="1.0" encoding="utf-8"?>
<!-- Generator: Adobe Illustrator 19.0.0, SVG Export Plug-In . SVG Version: 6.00 Build 0)  -->
<svg version="1.1" id="layer" xmlns="http://www.w3.org/2000/svg" xmlns:xlink="http://www.w3.org/1999/xlink" x="0px" y="0px"
	 viewBox="-153 -46 652 652" style="enable-background:new -153 -46 652 652;" xml:space="preserve">
<style type="text/css">
	.st0{fill:#FFDF00;}
</style>
<g>
	<path d="M212,288.3v-58.8h25.4c1.6,0,3.3,0,5.1,0.1c1.9,0.1,3.7,0.3,5.6,0.7c1.9,0.4,3.7,1,5.5,1.9c1.8,0.9,3.4,2.1,4.8,3.6
		c1.4,1.6,2.5,3.3,3.2,5.3c0.8,2,1.3,4.1,1.7,6.2c0.4,2.1,0.6,4.2,0.6,6.2c0.1,2,0.1,3.8,0.1,5.3c0,6.8-0.7,12.2-2.2,16.2
		c-1.5,4-3.6,6.9-6.2,8.9c-2.6,2-5.8,3.2-9.4,3.7c-3.6,0.5-7.6,0.8-11.8,0.8H212z M227.1,280.5l2.8,0.1h2.8c1.1,0,2.1-0.1,3.2-0.2
		c1.1-0.1,2.1-0.2,3.2-0.5c1.7-0.4,3.1-1,4.2-1.8c1.1-0.8,2-1.7,2.7-2.7c0.7-1,1.2-2.1,1.5-3.3c0.3-1.2,0.6-2.4,0.7-3.7
		c0.2-1.7,0.4-3.3,0.5-5c0.1-1.6,0.1-3.3,0.1-4.9c0-1.7,0-3.3-0.1-5c-0.1-1.7-0.3-3.3-0.5-5c-0.2-1.4-0.5-2.8-1-4.1
		c-0.4-1.3-1.1-2.5-2-3.5c-0.8-0.9-1.7-1.6-2.7-2.1c-1-0.5-2-0.9-3.1-1.1c-1.1-0.2-2.1-0.3-3.2-0.4c-1,0-2,0-2.9,0h-6.2V280.5z"/>
	<path d="M293.1,259.2c0-1,0-1.9-0.1-2.8c-0.1-0.9-0.3-1.6-0.7-2.3c-0.3-0.6-0.8-1-1.2-1.3c-0.5-0.3-1-0.6-1.5-0.7
		c-0.5-0.1-0.9-0.2-1.3-0.3c-0.4,0-0.7,0-0.9,0c-1.4,0-2.6,0.3-3.4,0.8c-0.8,0.5-1.4,1-1.7,1.5c-0.7,0.8-1.1,1.8-1.2,2.8
		c-0.1,1.1-0.2,2-0.3,2.8h-12.9c0-0.9,0-2,0.1-3.3c0.1-1.2,0.5-2.5,1.2-3.7c0.8-1.4,1.9-2.6,3.3-3.6c1.4-0.9,2.9-1.7,4.6-2.2
		c1.7-0.5,3.5-0.9,5.4-1.1c1.9-0.2,3.8-0.3,5.7-0.3c1.3,0,2.5,0,3.8,0.1c1.2,0.1,2.5,0.2,3.8,0.5c1.3,0.2,2.6,0.5,3.8,1
		c1.3,0.4,2.4,1,3.3,1.9c0.9,0.8,1.6,1.6,2.1,2.6c0.5,0.9,0.9,1.9,1.1,2.8c0.2,1,0.3,1.9,0.4,2.8c0,0.9,0,1.8,0,2.7v20
		c0,1.1,0,2.1,0,2.9c0,0.8,0.1,1.6,0.3,2.4c0.2,0.9,0.4,1.5,0.6,1.8c0.2,0.3,0.5,0.6,0.8,0.8v0.5h-11.1c-0.8,0-1.5,0-2-0.1
		c-0.6-0.1-1.1-0.3-1.5-0.6c-0.4-0.3-0.7-0.8-0.8-1.5c-0.2-0.6-0.3-1.5-0.3-2.6c-0.3,0.4-0.9,0.9-1.6,1.5c-0.7,0.6-1.7,1.3-2.8,1.9
		c-1.1,0.6-2.5,1.2-4,1.7c-1.6,0.5-3.4,0.7-5.4,0.7c-1.7,0-3.4-0.3-5.1-0.8c-1.7-0.5-3.1-1.4-4.2-2.7c-0.8-0.9-1.5-2.2-2.1-3.7
		c-0.6-1.5-0.8-3.3-0.8-5.3c0-0.4,0-1,0.1-1.8c0.1-0.8,0.2-1.7,0.6-2.6c0.3-0.9,0.8-1.9,1.5-2.9c0.7-1,1.6-1.9,2.9-2.7
		c1.6-1.1,3.6-1.8,5.9-2.3c2.3-0.4,5.3-0.9,9-1.3l6.6-0.7V259.2z M293.1,268c-1,0.1-1.8,0.2-2.5,0.2c-0.7,0.1-1.3,0.1-1.8,0.2
		c-0.5,0.1-0.9,0.1-1.3,0.2c-0.4,0.1-0.7,0.1-1.1,0.2c-1.6,0.4-3,1.1-4.3,2.1c-1.2,1-1.9,2.7-1.9,4.9c0,1,0.1,1.9,0.3,2.8
		c0.4,1.4,1.2,2.4,2.1,3c1,0.5,2,0.8,3.2,0.8c0.5,0,1.3-0.1,2.3-0.3c1-0.2,1.9-0.6,2.8-1.4c1.1-0.9,1.7-2,1.9-3.3
		c0.2-1.2,0.3-2.3,0.3-3.3V268z"/>
	<rect x="313.7" y="229.5" width="13.4" height="58.8"/>
	<path d="M350.6,252.5v19.9c0,1.2,0,2.3,0.1,3.3c0.1,1,0.2,1.9,0.5,2.7c0.3,0.7,0.8,1.4,1.4,1.8c0.7,0.4,1.6,0.7,2.8,0.7
		c0.7,0,1.3,0,1.9-0.2c0.5-0.1,1-0.2,1.5-0.3v7.3c-0.9,0.3-2.2,0.6-3.7,0.9c-1.5,0.3-3.3,0.5-5.3,0.5c-3.2,0-5.6-0.5-7.3-1.4
		c-1.7-0.9-2.9-2.1-3.7-3.5c-0.8-1.4-1.2-3-1.3-4.8c-0.1-1.8-0.2-3.5-0.2-5.2v-21.6h-5.2v-5.9h5.2v-8.2l13.4-2.7v10.8h7v5.9H350.6z"
		/>
	<path d="M405.2,266.8c0,0.9,0,2.1-0.1,3.5c-0.1,1.4-0.2,2.9-0.5,4.4c-0.3,1.5-0.7,3.1-1.4,4.6c-0.6,1.6-1.5,3-2.7,4.3
		c-1.3,1.4-2.8,2.6-4.5,3.4c-1.6,0.8-3.3,1.4-4.8,1.7c-1.6,0.4-3,0.6-4.4,0.6c-1.3,0.1-2.4,0.1-3.1,0.1c-1.5,0-3-0.1-4.6-0.2
		c-1.6-0.1-3.1-0.4-4.6-0.9c-2.6-0.7-4.7-1.8-6.3-3.2c-1.6-1.4-2.8-3-3.7-4.8c-0.9-1.8-1.4-3.7-1.7-5.7c-0.3-2-0.5-4.1-0.5-6.1
		c0-1.1,0-2.3,0.1-3.9c0.1-1.5,0.3-3.1,0.7-4.8c0.4-1.7,1-3.3,1.8-5c0.8-1.6,2-3.1,3.5-4.5c1.3-1.2,2.8-2.2,4.4-2.8
		c1.6-0.7,3.2-1.2,4.7-1.5c1.6-0.3,3-0.5,4.3-0.5c1.3-0.1,2.3-0.1,3-0.1c0.6,0,1.6,0,2.9,0.1c1.3,0.1,2.7,0.3,4.3,0.7
		c1.6,0.4,3.1,1,4.8,1.7c1.6,0.8,3.1,1.9,4.3,3.4c1,1.2,1.8,2.5,2.3,3.9c0.6,1.4,1,2.8,1.2,4.2c0.3,1.4,0.4,2.7,0.5,4
		C405.1,264.8,405.2,265.9,405.2,266.8 M391.5,266.6c0-1.8-0.1-3.7-0.3-5.5c0-0.7-0.2-1.5-0.3-2.5c-0.1-1-0.5-2-1-3
		c-0.5-1-1.2-1.9-2.1-2.6c-0.9-0.7-2.2-1.1-3.8-1.1c-1.3,0-2.4,0.3-3.5,0.8c-0.8,0.5-1.5,1.1-2,1.9c-0.5,0.8-0.9,1.5-1.2,2.3
		c-0.3,0.8-0.5,1.5-0.6,2.3c-0.1,0.8-0.2,1.4-0.2,2c-0.1,1.4-0.2,2.7-0.3,3.8c-0.1,1.1-0.1,2.1-0.1,3c0,1.9,0.1,3.8,0.2,5.7
		c0.1,0.7,0.2,1.5,0.3,2.6c0.1,1.1,0.5,2.1,1,3.2c0.5,1.1,1.2,2,2.2,2.7c1,0.8,2.3,1.1,4,1.1c1.1,0,2.2-0.3,3.2-0.7
		c0.9-0.5,1.6-1.1,2.1-1.9c0.5-0.7,0.9-1.6,1.3-2.4c0.3-0.9,0.5-1.7,0.6-2.5c0.1-0.8,0.2-1.5,0.3-2c0.1-1.2,0.2-2.3,0.2-3.5
		C391.5,269,391.5,267.8,391.5,266.6"/>
	<path d="M448.8,288.3h-13.4v-25.4v-2.3c0-0.7-0.1-1.4-0.2-2.1c0-0.3-0.1-0.8-0.2-1.5c-0.1-0.6-0.4-1.3-0.8-1.9
		c-0.4-0.6-1-1.1-1.7-1.6c-0.8-0.5-1.8-0.7-3-0.7c-0.7,0-1.3,0.1-1.8,0.2c-0.6,0.1-1,0.3-1.4,0.5c-0.9,0.4-1.6,0.8-2,1.4
		c-0.5,0.5-0.8,1.1-1.1,1.7c-0.3,0.6-0.4,1.2-0.5,1.8c-0.1,0.6-0.1,1.2-0.1,1.7v28.2h-13.4v-41.7h13.4v4.7c1.5-1.3,3.4-2.6,5.6-3.8
		c2.2-1.2,5-1.8,8.3-1.8c1.4,0,2.6,0.1,3.7,0.4c1.1,0.2,2,0.5,2.8,0.9c0.8,0.3,1.4,0.7,1.9,1.1c0.5,0.4,0.9,0.8,1.2,1.1
		c1.3,1.4,2.1,3.1,2.3,4.8c0.2,1.8,0.4,3.4,0.4,4.9V288.3z"/>
	<path d="M-66.5,288.4h-18.8l-5.8-27.8c-0.3-1.2-0.5-2.3-0.6-3.1c-0.1-0.9-0.3-1.7-0.4-2.5c-0.1-0.8-0.3-1.7-0.4-2.7
		c-0.1-0.9-0.2-2.1-0.4-3.5c-0.2,1.3-0.4,2.4-0.6,3.3c-0.2,0.9-0.3,1.7-0.5,2.4c-0.1,0.7-0.3,1.5-0.5,2.4c-0.2,0.8-0.4,1.9-0.7,3.1
		l-6.8,28.5h-18.8l-10.7-58.8h14.6l6.1,38.4c0.2,1,0.3,1.8,0.4,2.5c0.1,0.6,0.2,1.3,0.2,1.8c0.1,0.6,0.2,1.2,0.3,1.9
		c0.1,0.7,0.2,1.6,0.4,2.6c0.2-1,0.3-1.9,0.5-2.6c0.2-0.7,0.3-1.4,0.4-2c0.1-0.6,0.2-1.3,0.4-1.8c0.1-0.6,0.3-1.2,0.5-2l8.8-38.8
		h12.2l7.9,37.2c0.2,0.9,0.3,1.8,0.4,2.5c0.1,0.7,0.2,1.4,0.4,2.1c0.1,0.7,0.3,1.4,0.4,2.3c0.1,0.8,0.3,1.8,0.5,3
		c0.2-0.8,0.3-1.5,0.4-2.1c0.1-0.6,0.2-1.1,0.2-1.5c0.1-0.4,0.1-0.9,0.2-1.5c0.1-0.5,0.2-1.2,0.4-2l7.4-40h13.7L-66.5,288.4z"/>
	<path d="M-29.1,259.3c0-1,0-1.9-0.1-2.8c-0.1-0.9-0.3-1.6-0.7-2.3c-0.3-0.6-0.7-1-1.2-1.3c-0.5-0.3-1-0.6-1.5-0.7
		c-0.5-0.1-0.9-0.2-1.3-0.3c-0.4,0-0.7,0-0.9,0c-1.4,0-2.6,0.3-3.4,0.8c-0.8,0.5-1.4,1-1.8,1.5c-0.7,0.8-1.1,1.8-1.2,2.8
		c-0.1,1.1-0.2,2-0.3,2.8h-12.9c0-0.9,0-2,0.1-3.3c0.1-1.2,0.5-2.5,1.2-3.8c0.8-1.4,1.9-2.6,3.3-3.6c1.4-0.9,2.9-1.7,4.6-2.2
		c1.7-0.5,3.5-0.9,5.4-1.1c1.9-0.2,3.8-0.3,5.7-0.3c1.3,0,2.5,0,3.8,0.1c1.2,0.1,2.5,0.2,3.8,0.5c1.3,0.2,2.6,0.5,3.8,1
		c1.3,0.4,2.4,1,3.3,1.9c0.9,0.8,1.6,1.6,2.1,2.6c0.5,0.9,0.9,1.9,1.1,2.8c0.2,0.9,0.3,1.9,0.4,2.8c0,0.9,0,1.8,0,2.7v20
		c0,1.1,0,2.1,0,2.9c0,0.8,0.1,1.6,0.3,2.4c0.2,0.9,0.4,1.5,0.6,1.8c0.3,0.3,0.5,0.6,0.8,0.8v0.5H-25c-0.8,0-1.5,0-2-0.1
		c-0.6-0.1-1.1-0.2-1.5-0.6c-0.4-0.3-0.7-0.8-0.8-1.5c-0.2-0.6-0.2-1.5-0.2-2.6c-0.3,0.4-0.9,0.9-1.6,1.5c-0.7,0.6-1.7,1.3-2.8,1.9
		c-1.1,0.6-2.5,1.2-4,1.7c-1.6,0.5-3.4,0.7-5.4,0.7c-1.7,0-3.4-0.3-5.1-0.8c-1.7-0.5-3.1-1.4-4.2-2.7c-0.8-1-1.5-2.2-2.1-3.7
		c-0.6-1.5-0.8-3.3-0.8-5.3c0-0.4,0-1,0.1-1.8c0.1-0.8,0.2-1.7,0.6-2.6c0.3-0.9,0.8-1.9,1.5-2.9c0.7-1,1.6-1.9,2.9-2.7
		c1.6-1.1,3.6-1.8,5.9-2.3c2.3-0.4,5.3-0.9,9-1.3l6.6-0.7V259.3z M-29.1,268.1c-1,0.1-1.8,0.2-2.5,0.2c-0.7,0.1-1.3,0.1-1.8,0.2
		c-0.5,0.1-0.9,0.1-1.3,0.2c-0.4,0.1-0.7,0.1-1.1,0.2c-1.6,0.4-3,1.1-4.3,2.1c-1.3,1-1.9,2.6-1.9,4.9c0,1,0.1,1.9,0.3,2.8
		c0.4,1.4,1.2,2.4,2.1,3c1,0.5,2,0.8,3.2,0.8c0.5,0,1.2-0.1,2.2-0.2c1-0.2,1.9-0.6,2.8-1.4c1.1-0.9,1.7-2,1.9-3.2
		c0.2-1.2,0.3-2.3,0.3-3.3V268.1z"/>
	<path d="M30.5,246.7l-14.3,44.3c-0.7,2.1-1.4,4.1-2.1,5.9c-0.7,1.8-1.7,3.4-3,4.7c-1.2,1.3-2.8,2.4-4.8,3.1
		c-1.9,0.8-4.4,1.1-7.5,1.1c-0.3,0-0.7,0-1.3,0c-0.6,0-1.3-0.1-2.1-0.1c-0.8-0.1-1.7-0.1-2.7-0.3c-1-0.1-1.9-0.3-2.8-0.5v-9.2
		c0.4,0.1,1.2,0.3,2.4,0.5c1.1,0.2,2.3,0.3,3.6,0.3c1.4,0,2.5-0.2,3.3-0.7c0.8-0.5,1.4-1,1.9-1.7c0.4-0.7,0.7-1.4,0.9-2.1
		c0.1-0.7,0.2-1.4,0.3-1.9l0.1-1.2v-1.3l-13.8-41.1H2.6l7.7,30.5l7.4-30.5H30.5z"/>
	<path d="M74.4,288.4H61V263v-2.3c0-0.7-0.1-1.4-0.2-2.1c0-0.3-0.1-0.8-0.2-1.5c-0.1-0.6-0.4-1.3-0.8-1.9c-0.4-0.6-1-1.1-1.7-1.6
		c-0.7-0.5-1.8-0.7-3-0.7c-0.7,0-1.3,0.1-1.8,0.2c-0.6,0.1-1,0.3-1.4,0.5c-0.9,0.4-1.6,0.9-2,1.4c-0.5,0.5-0.8,1.1-1.1,1.7
		c-0.2,0.6-0.4,1.2-0.5,1.8c-0.1,0.6-0.1,1.2-0.1,1.8v28.2H34.8v-41.7h13.4v4.7c1.5-1.3,3.4-2.6,5.6-3.8c2.2-1.2,5-1.8,8.3-1.8
		c1.4,0,2.6,0.1,3.7,0.4c1.1,0.2,2,0.5,2.8,0.9c0.8,0.3,1.4,0.7,1.9,1.1c0.5,0.4,0.9,0.8,1.2,1.1c1.3,1.5,2.1,3.1,2.3,4.8
		c0.2,1.8,0.4,3.4,0.4,4.9V288.4z"/>
	<path d="M121.5,275.1c-0.1,0.7-0.2,1.5-0.3,2.4c-0.1,0.9-0.4,1.9-0.8,2.9c-0.4,1-1,2-1.8,3c-0.8,1-1.9,2-3.2,2.9
		c-1.1,0.7-2.3,1.2-3.6,1.7c-1.3,0.4-2.6,0.8-3.9,1c-1.3,0.2-2.5,0.4-3.7,0.5c-1.2,0.1-2.2,0.1-3,0.1c-3.7,0-6.8-0.4-9.3-1.3
		c-2.6-0.9-4.6-1.9-6-3.2c-1.4-1.2-2.5-2.6-3.2-4.2c-0.8-1.6-1.3-3.2-1.7-4.8c-0.4-1.6-0.6-3.1-0.6-4.4c-0.1-1.4-0.1-2.5-0.1-3.3
		c0-0.9,0-2.2,0.1-3.6c0.1-1.5,0.3-3,0.7-4.7c0.4-1.7,1-3.3,1.9-5c0.9-1.7,2.1-3.2,3.7-4.6c1.6-1.4,3.6-2.5,6.1-3.3
		c2.4-0.9,5.4-1.3,9-1.3c1.5,0,3,0.1,4.5,0.3c1.5,0.2,3,0.5,4.4,1c1.8,0.6,3.3,1.3,4.5,2.2c1.2,0.9,2.2,1.8,2.9,2.9
		c0.8,1.1,1.3,2.2,1.8,3.4c0.4,1.2,0.8,2.5,1,3.8c0.4,2,0.6,3.8,0.6,5.3c0,1.6,0,2.9-0.1,3.9H93.9c0,1.6,0,3.3,0.1,5
		c0.1,1.7,0.4,3.3,0.8,4.7c0.5,1.4,1.2,2.6,2.3,3.5c1,1,2.5,1.4,4.3,1.4c1,0,2-0.2,2.9-0.5c0.9-0.4,1.6-0.8,2.1-1.5
		c0.9-0.9,1.4-2,1.6-3.3c0.2-1.2,0.3-2.2,0.3-2.8H121.5z M108.2,262.7c0-0.9-0.1-2-0.2-3.3c-0.1-1.2-0.4-2.4-0.8-3.5
		c-0.4-1.1-1.1-2-2-2.8c-0.9-0.8-2.1-1.1-3.6-1.1c-1.7,0-3.1,0.4-4,1.3c-1,0.9-1.7,1.9-2.2,3.1c-0.5,1.2-0.8,2.4-1,3.6
		c-0.1,1.2-0.2,2.1-0.3,2.7H108.2z"/>
	<path d="M32.9,308.1L32.9,308.1c0-6.9,4.9-13,12.1-13c4.1,0,6.6,1.2,9,3.3l-1.8,2.1c-1.9-1.7-3.9-2.9-7.3-2.9
		c-5.3,0-9.2,4.7-9.2,10.3v0.1c0,6,3.7,10.4,9.5,10.4c2.8,0,5.3-1.1,7-2.5v-6.2h-7.3v-2.5h9.9v10c-2.2,2.1-5.6,3.8-9.7,3.8
		C37.6,320.9,32.9,315.2,32.9,308.1"/>
	<path d="M81.8,295.3h2.5l11,25.2h-2.9l-2.8-6.6H76.5l-2.9,6.6h-2.8L81.8,295.3z M88.6,311.4l-5.5-12.8l-5.5,12.8H88.6z"/>
	<path d="M112.1,295.5h10.4c3,0,5.3,0.9,6.8,2.5c1.2,1.2,1.9,3,1.9,4.9v0.1c0,4.1-2.8,6.6-6.5,7.3l7.4,10.2h-3.3l-7-9.7h-0.1h-6.8
		v9.7h-2.7V295.5z M122.2,308.2c3.6,0,6.2-1.9,6.2-5.1V303c0-3.1-2.3-4.9-6.2-4.9h-7.4v10.1H122.2z"/>
	<path d="M157.9,295.3h2.5l11,25.2h-2.9l-2.8-6.6h-13.1l-2.9,6.6h-2.8L157.9,295.3z M164.6,311.4l-5.5-12.8l-5.5,12.8H164.6z"/>
	<path d="M185.7,308.1L185.7,308.1c0-6.9,4.9-13,12.1-13c4.1,0,6.6,1.2,9,3.3l-1.8,2.1c-1.9-1.7-3.9-2.9-7.3-2.9
		c-5.3,0-9.2,4.7-9.2,10.3v0.1c0,6,3.7,10.4,9.5,10.4c2.8,0,5.3-1.1,7-2.5v-6.2h-7.3v-2.5h9.9v10c-2.2,2.1-5.6,3.8-9.7,3.8
		C190.4,320.9,185.7,315.2,185.7,308.1"/>
	<polygon points="225.8,295.5 243.2,295.5 243.2,298.1 228.5,298.1 228.5,306.6 241.6,306.6 241.6,309.2 228.5,309.2 228.5,317.9 
		243.4,317.9 243.4,320.5 225.8,320.5 	"/>
	<path d="M274.2,295.5h8.4c7.6,0,12.8,5.4,12.8,12.4v0.1c0,7-5.2,12.5-12.8,12.5h-8.4V295.5z M282.6,317.9c6.1,0,10-4.3,10-9.8V308
		c0-5.5-3.9-9.9-10-9.9h-5.6v19.8H282.6z"/>
	<path d="M312.1,308.1L312.1,308.1c0-7,5-13,12.3-13c7.3,0,12.2,6,12.2,12.9c0,0,0,0,0,0.1c0,6.9-5,12.9-12.3,12.9
		S312.1,315,312.1,308.1 M333.8,308.1L333.8,308.1c0-5.8-4-10.4-9.5-10.4c-5.5,0-9.4,4.6-9.4,10.3v0.1c0,5.7,4,10.3,9.5,10.3
		C329.9,318.3,333.8,313.7,333.8,308.1"/>
	<path d="M353.3,308.1L353.3,308.1c0-7,5-13,12.3-13c7.3,0,12.3,6,12.3,12.9c0,0,0,0,0,0.1c0,6.9-5,12.9-12.3,12.9
		C358.2,320.9,353.3,315,353.3,308.1 M375.1,308.1L375.1,308.1c0-5.8-4-10.4-9.5-10.4c-5.5,0-9.4,4.6-9.4,10.3v0.1
		c0,5.7,4,10.3,9.5,10.3C371.1,318.3,375.1,313.7,375.1,308.1"/>
	<path d="M395.6,295.5H406c3,0,5.3,0.9,6.9,2.5c1.2,1.2,1.9,3,1.9,4.9v0.1c0,4.1-2.8,6.6-6.5,7.3l7.4,10.2h-3.3l-7-9.7h-0.1h-6.8
		v9.7h-2.7V295.5z M405.8,308.2c3.6,0,6.2-1.9,6.2-5.1V303c0-3.1-2.3-4.9-6.2-4.9h-7.4v10.1H405.8z"/>
	<path d="M430.9,316.9l1.7-2.1c2.5,2.4,4.9,3.5,8.3,3.5c3.2,0,5.4-1.8,5.4-4.2V314c0-2.3-1.2-3.6-6.3-4.8c-5.5-1.2-8.1-3.1-8.1-7.2
		V302c0-3.9,3.3-6.8,7.9-6.8c3.5,0,6,1,8.5,3.1l-1.6,2.2c-2.2-1.9-4.5-2.7-6.9-2.7c-3.1,0-5.1,1.8-5.1,4v0.1c0,2.4,1.2,3.7,6.5,4.9
		c5.4,1.2,7.9,3.2,7.9,7.1v0.1c0,4.3-3.4,7.1-8.2,7.1C437,320.9,433.8,319.5,430.9,316.9"/>
	<path d="M459.7,281.5v1.2h-2.2v5.8h-1.4v-5.8h-2.2v-1.2H459.7z M467.3,288.5l-0.3-4.1c0-0.5,0-1.2,0-2h-0.1
		c-0.2,0.6-0.4,1.4-0.6,2.1l-1.3,3.9h-1.4l-1.3-4c-0.1-0.5-0.3-1.4-0.5-2h-0.1c0,0.6,0,1.3,0,2l-0.3,4.1h-1.3l0.5-7h2.1l1.2,3.4
		c0.2,0.5,0.3,1.1,0.5,1.8h0c0.2-0.6,0.3-1.2,0.5-1.8l1.2-3.4h2l0.5,7H467.3z"/>
	<rect x="132.5" y="255" class="st0" width="69" height="15.9"/>
	<rect x="132.5" y="272.6" class="st0" width="69" height="15.7"/>
	<path class="st0" d="M132.5,253.4h69v-23.8h-69V253.4z M164.3,248.3h-26.1v-13.5h26.1V248.3z M195.9,248.3h-26.1v-13.5h26.1V248.3z
		"/>
</g>
</svg>
